<?xml version="1.0" standalone="no"?>
<!DOCTYPE svg PUBLIC "-//W3C//DTD SVG 20010904//EN"
 "http://www.w3.org/TR/2001/REC-SVG-20010904/DTD/svg10.dtd">
<svg version="1.0" xmlns="http://www.w3.org/2000/svg"
 width="1376.000000pt" height="752.000000pt" viewBox="0 0 1376.000000 752.000000"
 preserveAspectRatio="xMidYMid meet">

<g transform="translate(0.000000,752.000000) scale(0.100000,-0.100000)"
fill="#000000" stroke="none">
<path d="M7531 5544 c-33 -17 -62 -41 -78 -65 -19 -29 -34 -40 -62 -45 -85
-16 -163 -85 -177 -158 l-5 -31 -78 -1 c-146 -3 -276 -58 -376 -160 -35 -35
-66 -73 -70 -84 -9 -29 -16 -25 -50 26 -58 87 -157 157 -285 200 -51 18 -92
19 -535 19 l-480 0 -37 -23 c-46 -29 -78 -92 -78 -155 l0 -47 -65 0 c-36 0
-80 -6 -98 -14 -43 -17 -95 -78 -102 -118 -3 -18 -4 -602 -3 -1298 3 -1244 3
-1266 23 -1299 11 -19 37 -48 58 -65 l39 -31 586 -5 c680 -6 632 2 713 -111
68 -95 104 -112 254 -117 200 -7 276 21 344 127 21 33 49 60 75 74 41 22 48
22 611 27 514 5 573 7 601 22 43 23 81 71 94 116 7 25 10 409 10 1147 0 721 3
1122 10 1145 5 19 10 53 10 76 0 31 6 46 26 65 49 45 69 97 69 179 0 64 -4 82
-27 121 -15 25 -38 53 -51 62 -20 13 -23 23 -24 81 -1 119 -75 212 -178 223
-37 5 -49 11 -60 32 -19 38 -64 78 -107 95 -58 24 -117 20 -183 -13 l-57 -29
-55 29 c-72 38 -130 38 -202 3z m149 -89 c16 -8 34 -24 40 -34 6 -12 10 -102
10 -220 l0 -200 -61 -7 c-95 -11 -152 -58 -133 -111 13 -38 52 -42 84 -8 18
19 33 25 67 25 l43 0 0 -219 0 -220 -26 -20 c-34 -27 -89 -27 -131 -1 -61 37
-53 130 17 181 71 53 1 110 -71 58 -17 -12 -44 -45 -60 -75 -17 -30 -33 -54
-35 -54 -19 0 -74 32 -88 51 -19 28 -21 102 -3 117 6 5 39 21 72 34 50 20 61
29 63 51 3 21 -2 28 -23 33 -14 3 -45 1 -70 -5 -76 -19 -100 -15 -135 26 -30
33 -32 40 -28 91 4 48 10 60 41 89 25 22 47 33 67 33 46 0 98 -26 111 -54 16
-33 34 -39 60 -17 46 37 -1 115 -87 145 -74 27 -79 30 -82 66 -5 51 6 79 41
100 47 29 60 25 96 -31 40 -61 98 -102 138 -97 21 2 29 9 31 27 3 17 -9 35
-47 70 -44 41 -51 52 -51 85 0 49 15 75 53 91 42 18 62 18 97 0z m341 -24 c20
-20 29 -40 29 -60 0 -39 30 -53 93 -45 58 7 102 -21 118 -76 10 -34 10 -48 0
-73 -8 -18 -16 -47 -18 -64 -5 -29 -2 -34 23 -43 81 -29 104 -59 104 -134 0
-55 -28 -91 -85 -110 -48 -17 -54 -37 -29 -101 21 -55 13 -99 -23 -137 -24
-25 -33 -28 -95 -28 -47 0 -70 -4 -72 -12 -21 -84 -32 -104 -68 -121 -32 -16
-43 -17 -73 -7 -58 19 -75 51 -75 140 l0 77 56 7 c47 5 59 3 81 -14 35 -27 41
-26 85 17 38 37 51 84 28 98 -32 20 7 101 52 110 18 4 38 12 45 17 17 14 26
80 14 111 -11 28 -16 31 -61 41 -16 3 -33 20 -49 49 l-24 44 21 35 21 34 -42
42 c-50 49 -73 52 -110 14 -27 -28 -29 -28 -75 -17 l-47 13 3 88 c2 81 5 91
28 112 39 34 107 31 145 -7z m-844 -315 c-96 -89 -94 -278 4 -360 24 -21 29
-32 29 -72 0 -123 80 -224 188 -236 23 -3 39 -14 61 -44 41 -58 85 -86 142
-92 65 -6 110 4 155 34 30 20 42 24 54 15 88 -63 182 -72 258 -24 25 16 54 45
67 68 18 33 28 41 63 47 23 4 47 10 53 14 7 4 9 -16 4 -67 -4 -41 -10 -518
-13 -1061 -7 -929 -8 -988 -25 -1005 -16 -17 -58 -18 -590 -23 -571 -5 -572
-5 -622 -28 -59 -27 -119 -82 -145 -133 -20 -39 -33 -47 -94 -59 l-38 -8 5 43
c20 145 131 264 285 307 60 16 110 18 520 18 486 0 501 1 536 51 14 21 16 102
16 844 l0 822 -26 24 c-23 22 -27 23 -52 8 l-27 -15 -5 -804 -5 -805 -475 -6
c-344 -3 -486 -9 -513 -18 -81 -27 -132 -53 -194 -101 l-63 -50 0 288 c0 328
-1 332 -70 332 -21 0 -41 -4 -45 -9 -5 -9 -10 -192 -14 -529 l-1 -82 -55 45
c-59 48 -124 84 -190 106 -30 10 -162 15 -525 19 l-485 5 -3 1264 c-1 926 1
1267 9 1277 9 11 91 14 439 14 242 0 451 -4 481 -10 80 -15 192 -73 234 -122
19 -23 48 -67 63 -98 26 -54 27 -60 32 -285 3 -126 9 -236 13 -242 13 -21 74
-16 98 8 21 21 22 28 15 148 -15 309 44 459 216 547 76 39 155 63 212 63 l49
1 -26 -24z m760 -21 c41 -27 76 -92 81 -148 3 -42 -1 -58 -20 -86 -29 -43 -85
-88 -119 -96 l-26 -6 -6 92 c-9 117 -9 233 -1 254 8 20 53 14 91 -10z m-2748
-191 l31 -6 0 -1181 c0 -1178 0 -1180 21 -1213 11 -19 25 -34 30 -34 6 0 8 -3
6 -7 -7 -12 32 -13 533 -16 509 -4 515 -4 612 -66 45 -29 57 -55 33 -74 -6 -5
-3 -7 7 -4 9 3 22 -1 28 -9 7 -8 17 -14 23 -14 6 0 0 11 -13 25 -13 14 -19 25
-14 24 12 0 58 -59 46 -59 -5 0 -12 -7 -16 -15 -3 -8 0 -14 6 -12 7 1 12 -2
13 -8 0 -5 4 -16 9 -24 7 -11 5 -13 -7 -8 -12 4 -17 1 -17 -11 0 -13 -2 -14
-8 -4 -5 7 -16 10 -25 6 -19 -7 -22 -20 -7 -29 6 -3 10 -1 10 6 0 7 2 10 5 7
3 -3 3 -13 -1 -22 -5 -13 -12 -9 -33 21 -15 21 -44 52 -64 70 -65 57 -111 65
-417 73 l-275 7 280 -2 c256 -1 286 -3 345 -23 35 -12 65 -20 65 -19 1 1 -7
10 -17 20 -10 9 -18 12 -18 6 0 -6 -5 -7 -12 -2 -7 4 -24 9 -38 11 -13 2 -30
8 -36 13 -8 6 -230 10 -584 11 -515 2 -572 3 -580 18 -5 10 -4 22 2 31 8 11 9
11 4 -3 -3 -10 -1 -20 4 -23 12 -7 650 -8 658 -1 3 3 -29 6 -71 6 -42 0 -76 3
-75 7 2 5 -1 8 -7 8 -5 0 -9 -3 -8 -6 1 -3 -18 -7 -43 -7 -24 -1 -44 2 -44 7
0 6 -10 6 -28 0 -16 -5 -82 -8 -148 -6 -77 2 -111 6 -96 11 12 5 22 13 22 18
0 5 -5 6 -12 2 -7 -5 -9 -2 -5 8 4 12 1 14 -15 10 -15 -4 -17 -7 -6 -14 9 -7
7 -8 -7 -3 -11 4 -43 8 -71 8 l-52 1 -10 86 -9 85 -3 -100 c-6 -151 -17 908
-19 1688 l-1 688 25 24 c25 26 41 29 94 19z m490 -2578 c-9 -8 -535 -13 -554
-5 -11 4 110 8 269 8 159 1 287 -1 285 -3z m880 -92 c16 -37 9 -39 -11 -3 -9
16 -14 29 -9 29 4 0 13 -12 20 -26z"/>
<path d="M5535 4716 l-25 -25 0 -398 c0 -219 3 -408 6 -421 9 -31 57 -55 95
-47 52 12 59 35 59 186 l0 137 133 4 c121 3 137 5 189 31 46 22 65 40 97 88
50 74 65 127 58 200 -10 108 -72 199 -166 243 -41 19 -68 21 -233 24 l-187 4
-26 -26z m393 -150 c39 -20 62 -62 62 -116 0 -50 -19 -89 -60 -124 -30 -25
-37 -26 -146 -26 l-114 0 0 146 0 147 113 -5 c77 -4 123 -10 145 -22z"/>
<path d="M6204 4705 c-18 -28 -11 -60 17 -75 22 -12 170 -16 188 -6 24 15 33
57 16 82 -14 22 -22 24 -110 24 -89 0 -95 -1 -111 -25z"/>
<path d="M6907 4712 c-21 -23 -22 -65 -2 -82 21 -17 95 -24 128 -11 40 15 54
53 33 86 -15 22 -23 25 -80 25 -48 0 -67 -4 -79 -18z"/>
<path d="M6305 4461 c-51 -21 -55 -67 -9 -98 48 -31 144 -3 144 43 0 40 -87
75 -135 55z"/>
<path d="M6935 4463 c-48 -13 -62 -56 -22 -73 33 -14 171 -40 212 -40 36 0 75
28 75 53 0 8 -12 24 -26 38 -23 22 -35 24 -122 26 -53 1 -106 -1 -117 -4z"/>
<path d="M6715 4260 c-132 -28 -227 -81 -316 -178 -94 -103 -158 -259 -159
-385 0 -107 53 -262 124 -358 45 -61 154 -142 246 -181 73 -32 78 -33 220 -33
l145 0 77 37 77 36 45 -48 c25 -27 46 -56 46 -65 0 -25 326 -351 375 -375 53
-26 94 -25 155 1 87 37 131 125 109 215 -11 41 -33 69 -182 223 -97 101 -187
185 -211 198 -22 12 -58 40 -79 62 l-38 41 25 76 c46 135 28 307 -46 447 -49
92 -149 189 -239 232 -121 57 -262 78 -374 55z m244 -129 c33 -10 80 -30 103
-44 65 -38 145 -128 181 -204 27 -58 32 -82 35 -164 5 -118 -13 -188 -70 -277
-66 -101 -156 -166 -273 -197 -240 -62 -499 92 -561 335 -26 103 -16 209 28
301 61 127 140 201 264 244 88 31 205 34 293 6z m364 -898 l-36 -43 -28 30
c-16 16 -29 35 -29 42 0 7 14 27 32 45 l32 33 32 -31 33 -32 -36 -44z m286
-185 c128 -126 141 -141 141 -173 0 -45 -29 -75 -72 -75 -29 0 -50 17 -176
146 l-144 146 48 49 c27 27 51 48 55 47 4 -2 70 -65 148 -140z"/>
<path d="M6188 4189 c-52 -30 -41 -94 18 -105 33 -6 39 -4 58 22 11 16 35 44
54 62 l33 32 -73 0 c-40 0 -81 -5 -90 -11z"/>
<path d="M7415 4061 c-2 -1 8 -27 22 -56 29 -59 42 -65 140 -65 68 0 88 -11
102 -53 23 -70 -20 -117 -106 -117 l-53 0 0 -55 c0 -30 -1 -58 -2 -62 -2 -5 7
-9 19 -11 16 -2 33 -23 60 -70 81 -148 124 -188 178 -164 40 18 40 46 -1 119
-20 36 -47 82 -61 101 l-24 36 49 42 c111 98 91 268 -40 335 -33 17 -62 21
-160 22 -66 1 -121 0 -123 -2z"/>
<path d="M5867 3922 c-22 -24 -21 -55 1 -75 15 -14 41 -17 144 -17 l125 0 10
50 c6 27 8 52 5 55 -3 3 -65 5 -137 5 -115 0 -134 -2 -148 -18z"/>
<path d="M5535 3655 c-29 -28 -31 -42 -9 -73 15 -22 16 -22 316 -22 l301 0 -6
50 c-3 28 -9 55 -12 60 -4 6 -115 10 -286 10 l-280 0 -24 -25z"/>
<path d="M5531 3384 c-26 -33 -26 -35 0 -68 l20 -26 345 0 c189 0 344 3 344 8
0 4 -13 30 -28 57 l-27 50 -317 3 -316 2 -21 -26z"/>
<path d="M5533 3123 c-28 -27 -29 -43 -3 -71 21 -22 21 -22 445 -22 412 0 426
1 445 20 37 37 17 76 -45 91 -23 5 -206 8 -430 7 -388 -3 -390 -3 -412 -25z"/>
<path d="M5531 2854 c-12 -15 -21 -30 -21 -34 0 -4 9 -19 21 -34 l20 -26 422
0 c460 1 457 0 457 57 0 64 8 63 -458 63 l-421 0 -20 -26z"/>
<path d="M6931 2867 c-13 -6 -30 -21 -38 -33 -12 -18 -11 -24 8 -47 l20 -27
165 0 c95 0 174 4 185 10 12 7 19 21 19 38 0 35 -10 49 -43 61 -40 15 -286 14
-316 -2z"/>
<path d="M5200 2536 c0 -11 22 -49 37 -64 26 -27 22 -7 -8 32 -16 22 -29 36
-29 32z"/>
<path d="M5128 2433 c7 -3 16 -2 19 1 4 3 -2 6 -13 5 -11 0 -14 -3 -6 -6z"/>
<path d="M5285 2430 c-3 -6 1 -7 9 -4 18 7 21 14 7 14 -6 0 -13 -4 -16 -10z"/>
<path d="M5323 2413 c0 -17 9 -16 32 1 19 14 18 14 -6 13 -14 -1 -26 -8 -26
-14z"/>
<path d="M6407 2369 c7 -7 15 -10 18 -7 3 3 -2 9 -12 12 -14 6 -15 5 -6 -5z"/>
<path d="M5813 2363 c15 -2 39 -2 55 0 15 2 2 4 -28 4 -30 0 -43 -2 -27 -4z"/>
<path d="M6436 2344 c-8 -22 -4 -25 11 -9 7 8 9 16 4 19 -5 3 -12 -1 -15 -10z"/>
<path d="M6424 2237 c36 -38 49 -44 55 -25 2 7 1 10 -3 6 -4 -3 -21 7 -37 23
-41 40 -54 37 -15 -4z"/>
<path d="M6480 2242 c0 -5 7 -15 15 -22 8 -7 15 -9 15 -6 0 4 -7 14 -15 22 -8
9 -15 11 -15 6z"/>
</g>
</svg>
